<svg xmlns="http://www.w3.org/2000/svg" xmlns:xlink="http://www.w3.org/1999/xlink" viewBox="0 0 243.93 100"><defs><style>.cls-1,.cls-2{fill:none;}.cls-2{clip-path:url(#clip-path);clip-rule:evenodd;}.cls-3{clip-path:url(#clip-path-4);}.cls-4{fill:#fff;}.cls-5{clip-path:url(#clip-path-5);}.cls-6{fill:#005aef;}.cls-7{clip-path:url(#clip-path-6);}</style><clipPath id="clip-path"><rect class="cls-1" width="234" height="90"/></clipPath><clipPath id="clip-path-4" transform="translate(5 5)"><path class="cls-2" d="M4.2,45A40.57,40.57,0,1,0,44.76,4.22,40.67,40.67,0,0,0,4.2,45Z"/></clipPath><clipPath id="clip-path-5" transform="translate(5 5)"><path class="cls-2" d="M41.33,72.29h-3.4l3.36-20.47-10.41,0h-.15A1.71,1.71,0,0,1,29,50.13,3.2,3.2,0,0,1,29.41,49L48.13,17.67h3.45l-3.44,20.5H58.77a1.67,1.67,0,0,1,1.34,2.71L41.33,72.29ZM0,45A44.76,44.76,0,1,0,44.76,0,44.88,44.88,0,0,0,0,45Z"/></clipPath><clipPath id="clip-path-6" transform="translate(5 5)"><path class="cls-2" d="M140.47,59H126.23l-2.36,7H114.2l13.91-37.91h10.58L152.61,66h-9.78l-2.36-7Zm-2.37-7-4.72-14-4.79,14Zm60.75-23.92V66h-9.18V42.29L181.5,66h-7.95l-8.21-23.76V66h-9.19V28.09h11.23L177.64,54.5l10-26.41Zm15.53,24.52V66h-9.19V27.82h14.88q6.77,0,10.31,3.38a12,12,0,0,1,3.55,9.1,12.54,12.54,0,0,1-1.59,6.34,11,11,0,0,1-4.7,4.38,16.48,16.48,0,0,1-7.57,1.59Zm4.67-7.4q5.53,0,5.53-4.91t-5.53-5h-4.67v9.94Z"/></clipPath></defs><g id="Layer_2" data-name="Layer 2"><g id="Layer_1-2" data-name="Layer 1"><g class="cls-3"><rect class="cls-4" x="4.2" y="4.22" width="91.13" height="91.56"/></g><g class="cls-5"><rect class="cls-6" width="99.52" height="100"/></g><g class="cls-7"><rect class="cls-6" x="114.2" y="27.82" width="129.73" height="48.18"/></g></g></g></svg>